<?xml version="1.0" encoding="UTF-8"?>
<svg xmlns="http://www.w3.org/2000/svg" viewBox="0 0 1246 871" preserveAspectRatio="xMidYMid meet">
  <g transform="translate(0,871) scale(0.1,-0.1)" fill="white" stroke="none">
    <path d="M3595 7959 c-284 -7 -286 -7 -418 -77 -92 -48 -177 -134 -222 -225 -57 -116 -65 -175 -65 -490 l0 -277 493 2 492 3 0 527 c-1 324 -5 531 -10 535 -6 5 -127 5 -270 2z"/>
    <path d="M5718 7962 l-488 -2 -2 -2751 c-2 -1513 -1 -2754 2 -2757 3 -4 227 -7 498 -7 l492 0 0 2757 c0 1516 -3 2758 -7 2760 -5 2 -227 2 -495 0z"/>
    <path d="M8590 7951 c0 -3 0 -1243 0 -2756 l0 -2749 43 2 c79 5 279 44 315 61 162 77 181 89 264 169 138 133 219 263 283 455 75 225 70 86 70 2062 0 1901 2 1814 -52 2015 -28 106 -112 289 -166 364 -106 145 -266 268 -419 320 -90 30 -338 72 -338 57z"/>
    <path d="M3108 5833 l-218 -3 0 -1690 0 -1690 440 -2 c242 -1 464 -2 493 -3 l52 0 4 1245 c1 685 0 1449 -4 1698 l-7 452 -272 -2 c-149 -2 -369 -4 -488 -5z"/>
    <path d="M6910 3291 l0 -840 488 -3 c268 -2 490 0 495 3 4 3 6 381 5 840 l-3 834 -492 3 -493 2 0 -839z"/>
  </g>
</svg>
