<?xml version="1.0" encoding="utf-8"?>
<!-- Generator: Adobe Illustrator 22.0.0, SVG Export Plug-In . SVG Version: 6.00 Build 0)  -->
<svg version="1.1" id="Слой_1" xmlns="http://www.w3.org/2000/svg" xmlns:xlink="http://www.w3.org/1999/xlink" x="0px" y="0px"
	 viewBox="0 0 20 20" style="enable-background:new 0 0 20 20;" xml:space="preserve">
<style type="text/css">
	.st0{opacity:0.5;fill:#FFFFFF;}
</style>
<path class="st0" d="M6,4.1c0.5,0,1.1,0,1.5,0.2c0.5,0,0.9,0.2,1.2,0.4s0.6,0.5,0.8,0.9s0.2,0.8,0.2,1.3c0,0.6-0.1,1.1-0.4,1.5
	C9,8.8,8.6,9.1,8.1,9.4c0.7,0.2,1.3,0.6,1.6,1.1s0.5,1.1,0.5,1.9c0,0.6-0.1,1.1-0.3,1.5S9.4,14.7,9,15s-0.8,0.5-1.4,0.6
	c-0.5,0.1-1,0.2-1.5,0.2H0.4V4.1H6z M5.7,8.8c0.5,0,0.8-0.1,1.1-0.3c0.3-0.2,0.4-0.6,0.4-1.1c0-0.3,0-0.5-0.1-0.7
	C7,6.5,6.9,6.4,6.7,6.3C6.6,6.2,6.4,6.1,6.2,6.1C6,6,5.8,6,5.5,6H3.1v2.7C3.1,8.8,5.7,8.8,5.7,8.8L5.7,8.8z M5.8,13.8
	c0.3,0,0.5,0,0.7-0.1c0.2,0,0.4-0.1,0.6-0.3s0.3-0.3,0.4-0.5s0.2-0.5,0.2-0.8c0-0.6-0.2-1-0.5-1.3s-0.8-0.4-1.4-0.4H3.1v3.2
	L5.8,13.8L5.8,13.8L5.8,13.8z M14,13.7c0.3,0.3,0.8,0.5,1.5,0.5c0.5,0,0.9-0.1,1.2-0.3c0.3-0.3,0.5-0.5,0.6-0.8h2.1
	c-0.3,1-0.8,1.7-1.5,2.2c-0.7,0.4-1.5,0.7-2.4,0.7c-0.6,0-1.2-0.1-1.8-0.3c-0.5-0.2-1-0.5-1.4-0.9s-0.7-0.9-0.8-1.4
	c-0.2-0.5-0.3-1.1-0.3-1.8c0-0.6,0.1-1.2,0.3-1.8c0.2-0.5,0.5-1,0.9-1.4c0.4-0.4,0.8-0.7,1.4-0.9c0.4-0.3,1-0.5,1.6-0.5
	c0.7,0,1.4,0.1,1.9,0.4s1,0.6,1.3,1.1s0.6,1,0.8,1.6c0.1,0.6,0.1,1.2,0.1,1.9h-6.1C13.4,12.8,13.6,13.4,14,13.7z M16.6,9.3
	c-0.3-0.3-0.8-0.5-1.3-0.5c-0.4,0-0.7,0.1-0.9,0.2c-0.3,0.1-0.4,0.3-0.6,0.5c-0.2,0.2-0.3,0.4-0.3,0.6c0,0.2-0.1,0.4-0.1,0.5h3.8
	C17.1,10,16.9,9.6,16.6,9.3L16.6,9.3z M12.9,4.9h4.7V6h-4.7C12.9,6,12.9,4.9,12.9,4.9z"/>
</svg>
