<svg width="17" height="28" viewBox="0 0 17 28" fill="none" xmlns="http://www.w3.org/2000/svg">
<path d="M16.2381 1.06104C14.9351 0.922862 13.6256 0.855596 12.3153 0.859539C7.97143 0.859539 5.27184 3.62629 5.27184 8.07996V11.1037H1.62288C1.4516 11.1037 1.28733 11.1718 1.16621 11.2929C1.04509 11.414 0.977051 11.5783 0.977051 11.7496V16.7225C0.977051 16.8938 1.04509 17.0581 1.16621 17.1792C1.28733 17.3003 1.4516 17.3683 1.62288 17.3683H5.27184V27.34C5.27184 27.5113 5.33988 27.6756 5.461 27.7967C5.58212 27.9178 5.74639 27.9858 5.91768 27.9858H11.0559C11.2272 27.9858 11.3915 27.9178 11.5126 27.7967C11.6337 27.6756 11.7018 27.5113 11.7018 27.34V17.3683H15.3391C15.4959 17.3684 15.6474 17.3114 15.7652 17.2081C15.8831 17.1047 15.9594 16.9619 15.9798 16.8065L16.6217 11.8335C16.6337 11.7424 16.626 11.6497 16.5993 11.5618C16.5726 11.4738 16.5274 11.3926 16.4667 11.3235C16.4061 11.2544 16.3314 11.1991 16.2476 11.1612C16.1639 11.1233 16.073 11.1037 15.9811 11.1037H11.7018V8.57337C11.7018 7.32046 11.9536 6.79733 13.5204 6.79733H16.1541C16.3254 6.79733 16.4897 6.72929 16.6108 6.60817C16.7319 6.48705 16.8 6.32278 16.8 6.1515V1.70171C16.8 1.54491 16.7431 1.39344 16.6397 1.27555C16.5363 1.15767 16.3936 1.08142 16.2381 1.06104ZM15.5083 5.50437L13.5191 5.50566C10.733 5.50566 10.4101 7.25716 10.4101 8.57337V11.7509C10.4101 11.9219 10.478 12.086 10.5988 12.2071C10.7196 12.3282 10.8836 12.3964 11.0546 12.3967H15.2474L14.7708 16.078H11.0559C10.8846 16.078 10.7204 16.146 10.5993 16.2671C10.4781 16.3882 10.4101 16.5525 10.4101 16.7238V26.6929H6.56351V16.7238C6.56351 16.5525 6.49547 16.3882 6.37435 16.2671C6.25323 16.146 6.08896 16.078 5.91768 16.078H2.27001V12.3967H5.91768C6.08896 12.3967 6.25323 12.3287 6.37435 12.2075C6.49547 12.0864 6.56351 11.9222 6.56351 11.7509V8.07996C6.56351 4.36771 8.71413 2.15121 12.3153 2.15121C13.6186 2.15121 14.7953 2.22225 15.5083 2.28425V5.50437Z" fill="#A5A5A5"/>
</svg>
