<svg width="25" height="25" viewBox="0 0 25 25" fill="none" xmlns="http://www.w3.org/2000/svg">
<path d="M12.5 6.92969C11.3983 6.92969 10.3213 7.25638 9.4053 7.86845C8.48927 8.48053 7.77531 9.35049 7.3537 10.3683C6.9321 11.3862 6.82179 12.5062 7.03672 13.5867C7.25165 14.6672 7.78217 15.6598 8.56119 16.4388C9.34022 17.2178 10.3328 17.7483 11.4133 17.9633C12.4938 18.1782 13.6138 18.0679 14.6317 17.6463C15.6495 17.2247 16.5195 16.5107 17.1315 15.5947C17.7436 14.6787 18.0703 13.6017 18.0703 12.5C18.0684 11.0233 17.4809 9.60754 16.4367 8.56332C15.3925 7.5191 13.9767 6.93161 12.5 6.92969ZM12.5 16.6172C11.6857 16.6172 10.8897 16.3757 10.2126 15.9233C9.53555 15.4709 9.00784 14.8279 8.69621 14.0756C8.38459 13.3233 8.30306 12.4954 8.46192 11.6968C8.62079 10.8981 9.01291 10.1645 9.58871 9.58871C10.1645 9.01291 10.8981 8.62079 11.6968 8.46192C12.4954 8.30306 13.3233 8.38459 14.0756 8.69621C14.8279 9.00784 15.4709 9.53555 15.9233 10.2126C16.3757 10.8897 16.6172 11.6857 16.6172 12.5C16.6172 13.5919 16.1834 14.6392 15.4113 15.4113C14.6392 16.1834 13.5919 16.6172 12.5 16.6172ZM18.3125 0.148438H6.6875C4.95382 0.150361 3.2917 0.839913 2.06581 2.06581C0.839913 3.2917 0.150361 4.95382 0.148438 6.6875V18.3125C0.150361 20.0462 0.839913 21.7083 2.06581 22.9342C3.2917 24.1601 4.95382 24.8496 6.6875 24.8516H18.3125C20.0462 24.8496 21.7083 24.1601 22.9342 22.9342C24.1601 21.7083 24.8496 20.0462 24.8516 18.3125V6.6875C24.8496 4.95382 24.1601 3.2917 22.9342 2.06581C21.7083 0.839913 20.0462 0.150361 18.3125 0.148438ZM23.3984 18.3125C23.3984 19.6614 22.8626 20.955 21.9088 21.9088C20.955 22.8626 19.6614 23.3984 18.3125 23.3984H6.6875C5.33863 23.3984 4.045 22.8626 3.0912 21.9088C2.1374 20.955 1.60156 19.6614 1.60156 18.3125V6.6875C1.60156 5.33863 2.1374 4.045 3.0912 3.0912C4.045 2.1374 5.33863 1.60156 6.6875 1.60156H18.3125C19.6614 1.60156 20.955 2.1374 21.9088 3.0912C22.8626 4.045 23.3984 5.33863 23.3984 6.6875V18.3125ZM20.0078 6.20312C20.0078 6.44263 19.9368 6.67675 19.8037 6.87589C19.6707 7.07502 19.4815 7.23023 19.2603 7.32189C19.039 7.41354 18.7955 7.43752 18.5606 7.39079C18.3257 7.34407 18.11 7.22874 17.9406 7.05939C17.7713 6.89003 17.6559 6.67427 17.6092 6.43937C17.5625 6.20447 17.5865 5.96099 17.6781 5.73972C17.7698 5.51845 17.925 5.32933 18.1241 5.19627C18.3233 5.06321 18.5574 4.99219 18.7969 4.99219C19.118 4.99219 19.426 5.11977 19.6531 5.34686C19.8802 5.57396 20.0078 5.88196 20.0078 6.20312Z" fill="#A5A5A5"/>
</svg>
