<?xml version="1.0" encoding="UTF-8"?>
<svg width="19" height="20" viewBox="0 0 19 20" fill="none" xmlns="http://www.w3.org/2000/svg">
<path opacity="0.5" fill-rule="evenodd" clip-rule="evenodd" d="M13.4173 0.432727C11.6693 0.351187 7.33972 0.355145 5.59014 0.432727C4.05272 0.504767 2.6966 0.876052 1.60331 1.96932C-0.031732 3.60433 -0.0166497 5.74774 0.0046006 8.76771C0.00709767 9.12258 0.00967992 9.48955 0.00967992 9.86923C0.00967992 10.2246 0.00777667 10.568 0.00593616 10.9001C-0.0113635 14.0216 -0.0231191 16.1427 1.60331 17.7691C3.24134 19.4064 5.40842 19.3903 8.39433 19.3681H8.39447C8.75218 19.3655 9.12164 19.3627 9.50335 19.3627H9.5549C13.1759 19.3627 14.4336 19.3627 15.7219 18.864C17.4818 18.1808 18.8102 16.6078 18.94 13.7824C19.0224 12.0336 19.0176 7.70485 18.94 5.9553C18.7833 2.62006 16.9933 0.597391 13.4173 0.432727ZM10.352 17.6525H10.352C10.0746 17.6518 9.78429 17.6512 9.48039 17.6512L8.93666 17.6514C5.37349 17.654 3.88021 17.6551 2.77656 16.5484C1.62837 15.4057 1.64736 13.6671 1.67491 11.1438C1.67937 10.7355 1.68406 10.3067 1.68406 9.85656C1.68406 9.47483 1.68064 9.10242 1.67731 8.74046C1.64256 4.95513 1.6183 2.31307 5.62497 2.10786L5.6704 2.10626C6.64308 2.07188 6.96896 2.06036 9.46931 2.06036L9.50493 2.08411C9.86643 2.08411 10.2212 2.08087 10.568 2.0777C14.2681 2.04388 17.0507 2.01844 17.2324 6.0313C17.2775 7.03274 17.2878 7.33356 17.2878 9.86844C17.2878 10.0959 17.288 10.3156 17.2882 10.5278V10.5291C17.2914 13.9654 17.2928 15.4465 16.1842 16.5603C15.0811 17.6634 13.5845 17.6599 10.352 17.6525ZM9.50352 4.99414C6.80948 4.99414 4.62843 7.17752 4.62843 9.86914C4.62843 12.5631 6.81185 14.7441 9.50352 14.7441C12.1976 14.7441 14.3786 12.5608 14.3786 9.86914C14.3786 7.17514 12.1952 4.99414 9.50352 4.99414ZM9.50352 13.0334C7.75473 13.0334 6.33923 11.6171 6.33923 9.86914C6.33923 8.12117 7.75552 6.7049 9.50352 6.7049C11.2515 6.7049 12.6678 8.12117 12.6678 9.86914C12.6686 11.6171 11.2523 13.0334 9.50352 13.0334ZM15.7108 4.80179C15.7108 5.43094 15.2008 5.94097 14.5716 5.94097C13.9425 5.94097 13.4324 5.43094 13.4324 4.80179C13.4324 4.17263 13.9425 3.6626 14.5716 3.6626C15.2008 3.6626 15.7108 4.17263 15.7108 4.80179Z" fill="white"/>
</svg>
