<svg id="Шар_1" data-name="Шар 1" xmlns="http://www.w3.org/2000/svg" viewBox="0 0 452.86 575.2"><defs><style>.cls-1{fill:#fff;}</style></defs><path class="cls-1" d="M386.49,508.52c-7.57,50.18-50.69,79.67-93.37,76.48-37.6-2.8-73.38-30.3-80.45-76.48h-6.79c-33.84,0-67.67-.11-101.51.05-13.82.07-24.58-5-30.33-17.86s-2.38-24.3,7-34.46c16.91-18.31,32-37.94,42-61A103,103,0,0,0,131.77,353c-.24-29.22-.15-58.44-.05-87.66C132,193.26,175.12,132,243,107.62c3.91-1.41,4.74-3.46,4.69-7.19-.18-13-.14-25.92-.05-38.88C247.86,32.11,269.5,10,297.92,10c28,.08,49.54,22.22,49.76,51.34.1,13.18.15,26.36-.07,39.54-.06,3.67,1.12,5.26,4.58,6.57,62.23,23.66,98.69,68.57,109.72,134.08,1.38,8.18,1.6,16.63,1.67,24.95.2,26.37.84,52.76-.14,79.09-1,27.58,7.1,52,22.39,74.27a426.7,426.7,0,0,0,28.48,36.18c9,10.46,12.74,21.66,7.05,34.53-5.81,13.14-16.84,18.09-30.91,18-32.29-.21-64.59-.06-96.88-.06Zm-89.24-21.1q96.54,0,193.09,0c5,0,9.8-.11,12.13-5.68,2.25-5.41-1.51-8.52-4.42-12.1-9-11.06-18.49-21.79-26.68-33.43-19.41-27.62-30.59-57.8-29-92.39,1.14-25.21.44-50.52.11-75.78a203.36,203.36,0,0,0-2.4-29.48c-12.39-77.7-91-132.32-168.16-117.09-70.8,14-118.84,72.19-119.07,144.4-.09,28.78,0,57.56-.05,86.33a135.28,135.28,0,0,1-.83,17.09c-3.73,28.49-17.05,52.81-33.9,75.38-7.08,9.48-15.42,18-22.6,27.44-1.9,2.5-3.1,7.33-2,9.87s5.56,3.91,8.75,5.29c1.48.64,3.47.12,5.22.12ZM364,509H234.62C238.9,541,268.24,564.83,302,564,332.89,563.24,361.5,537.91,364,509ZM326,99.29c0-14.4,1.17-29.79-.34-44.91-1.42-14.29-14-23.42-28.23-23.33-14.06.09-26.52,9.6-27.85,23.88-1.38,14.93-.31,30.1-.31,44.36Z" transform="translate(-71.21 -10.04)"/></svg>