<?xml version="1.0" encoding="UTF-8"?>
<svg width="14" height="19" viewBox="0 0 14 19" fill="none" xmlns="http://www.w3.org/2000/svg">
<path opacity="0.5" d="M7.42381 0C2.48843 0 0 3.71747 0 6.81769C0 8.69471 0.676356 10.3644 2.12683 10.9869C2.36493 11.089 2.57823 10.9906 2.64747 10.7139C2.69524 10.5223 2.80874 10.0393 2.85929 9.83796C2.9289 9.56426 2.90169 9.46836 2.70987 9.22986C2.29161 8.71144 2.02425 8.04031 2.02425 7.08964C2.02425 4.3316 3.98834 1.86262 7.13886 1.86262C9.92798 1.86262 11.4607 3.65347 11.4607 6.04502C11.4607 9.19174 10.1352 11.8475 8.16756 11.8475C7.08073 11.8475 6.26754 10.9032 6.52824 9.74517C6.8404 8.36265 7.44492 6.87041 7.44492 5.87266C7.44492 4.97938 6.98889 4.23414 6.04425 4.23414C4.93335 4.23414 4.0411 5.44159 4.0411 7.05891C4.0411 8.08914 4.37234 8.78594 4.37234 8.78594C4.37234 8.78594 3.23533 13.8466 3.03648 14.7329C2.63933 16.4977 2.97686 18.6615 3.00537 18.8799C3.02185 19.0095 3.18015 19.0402 3.25199 18.9425C3.35475 18.8019 4.67765 17.086 5.12738 15.3712C5.25458 14.8856 5.85762 12.3715 5.85762 12.3715C6.21866 13.0946 7.27347 13.7317 8.3953 13.7317C11.7343 13.7317 14 10.5334 14 6.252C14.0002 3.01483 11.3901 0 7.42381 0Z" fill="white"/>
</svg>
