<?xml version="1.0" encoding="utf-8"?><svg xmlns="http://www.w3.org/2000/svg" xmlns:xlink="http://www.w3.org/1999/xlink"><symbol viewBox="0 0 76 41" id="logo" xmlns="http://www.w3.org/2000/svg"><path d="M1.755 2.62c0-.627.317-1.07.906-1.217.544-.148 1.45 0 1.993.664h.045L28.475 25.95c.453.517 1.087.886 1.766 1.07.68.222 1.404.222 2.084.074a2.902 2.902 0 001.449-.886 2.54 2.54 0 00.589-1.624V0h-1.63v24.584c0 .664-.318 1.107-.906 1.255-.59.148-1.45 0-2.038-.665v-.036L5.967 1.292C5.56.775 4.926.369 4.247.185A3.646 3.646 0 002.162.148C1.574.295 1.031.59.713.997.307 1.44.126 1.993.126 2.62v24.436h1.63V2.621zm61.699 11.185a2.495 2.495 0 00-.408-.258c.136-.074.272-.185.408-.258.815-.554 1.494-1.292 2.355-2.363L75.183 0h-1.992l-8.696 10.188c-1.54 1.882-2.4 2.695-4.347 2.695h-18.16V0h-1.586v27.057h1.585V14.211h18.16c1.948 0 2.809.813 4.348 2.658l8.696 10.188h1.947l-9.33-10.926c-.86-1.07-1.539-1.809-2.354-2.326z"/><path fill-rule="evenodd" clip-rule="evenodd" d="M44.186 33.5h-7.403v7.41h.719v-6.808h6.684c.302 0 .568.09.755.231.188.14.292.326.292.523v1.963c0 .191-.104.375-.291.514-.188.14-.454.231-.756.231h-6.14v.601h4.76l2.774 2.755h.94l-2.773-2.755h.44c.473 0 .907-.144 1.225-.382.318-.24.527-.578.527-.964v-1.963c0-.385-.208-.726-.526-.968a2.039 2.039 0 00-1.227-.388zm10.403 0c-.708 0-1.353.218-1.825.574-.47.356-.774.856-.774 1.417v3.448c0 .561.303 1.06.775 1.413.47.353 1.116.568 1.824.568h6.16c.707 0 1.353-.215 1.824-.568.471-.354.774-.852.774-1.413v-3.448c0-.56-.303-1.061-.774-1.417-.47-.356-1.116-.574-1.825-.574H54.59zm18.563 0H65.75v7.41h.719v-6.808h6.684c.302 0 .567.09.755.231.188.14.292.326.292.523v1.963c0 .191-.104.375-.291.514-.188.14-.454.231-.756.231h-6.14v.601h4.76l2.774 2.755h.94l-2.773-2.755h.44c.473 0 .907-.144 1.225-.382.318-.24.527-.578.527-.964v-1.963c0-.385-.208-.726-.526-.968a2.039 2.039 0 00-1.227-.388zM.72 33.51H0v7.41h.719v-7.41zm3.604 0h-.728v7.4h.719v-6.58l8.438 6.59h.702v-7.41h-.719v6.58l-8.412-6.58zm19.903 0H14.9v.601h4.297v6.81h.719v-6.81h4.31v-.601zm3.271 0c-.46 0-.885.142-1.197.377-.311.235-.516.57-.516.95v4.757c0 .38.205.714.517.95a2 2 0 001.196.376h7.196v-.601h-7.196c-.288 0-.544-.088-.725-.224-.182-.136-.282-.315-.282-.501v-4.758c0-.186.1-.367.283-.506.181-.138.437-.228.724-.228h7.196v-.592h-7.196zm22.151 0h-.719v7.41h.72v-7.41zm3.048 1.98c0-.366.201-.71.544-.968.343-.257.821-.42 1.35-.42h6.158c.529 0 1.006.163 1.35.42.342.258.543.602.543.969v3.448c0 .367-.2.709-.543.964-.343.254-.82.416-1.35.416H54.59c-.529 0-1.006-.162-1.349-.416-.343-.255-.544-.597-.544-.964v-3.448zm-18.498 1.43h-7.151v.6h7.15v-.6z"/></symbol><symbol viewBox="0 0 81 8" id="long-arrow" xmlns="http://www.w3.org/2000/svg"><path d="M80.354 4.354a.5.5 0 000-.708L77.172.464a.5.5 0 10-.707.708L79.293 4l-2.829 2.828a.5.5 0 10.708.708l3.182-3.182zM0 4.5h80v-1H0v1z"/></symbol><symbol viewBox="0 0 130 48" id="nk" xmlns="http://www.w3.org/2000/svg"><path d="M2.824 4.541c0-1.087.549-1.855 1.569-2.11.94-.256 2.51 0 3.45 1.15h.08l41.18 41.383c.784.895 1.882 1.535 3.058 1.855 1.177.383 2.432.383 3.608.128a5.026 5.026 0 002.51-1.535 4.402 4.402 0 001.02-2.815V0h-2.824v42.597c0 1.152-.549 1.92-1.568 2.175-1.02.256-2.51 0-3.53-1.151v-.064L10.118 2.239c-.705-.896-1.804-1.6-2.98-1.92A6.313 6.313 0 003.53.257c-1.02.256-1.961.767-2.51 1.47C.314 2.495 0 3.455 0 4.542v42.342h2.824V4.54zm106.861 19.38c-.236-.192-.471-.32-.706-.448.235-.128.47-.32.706-.447 1.411-.96 2.588-2.239 4.078-4.094L130 0h-3.451l-15.06 17.653c-2.667 3.262-4.158 4.67-7.53 4.67H72.505V0H69.76v46.883h2.745V24.625h31.454c3.372 0 4.863 1.407 7.53 4.605l15.06 17.653h3.373L113.763 27.95c-1.49-1.855-2.667-3.134-4.078-4.03z"/></symbol><symbol viewBox="0 0 25 8" id="small-arrow" xmlns="http://www.w3.org/2000/svg"><path d="M24.354 4.354a.5.5 0 000-.708L21.172.464a.5.5 0 10-.707.708L23.293 4l-2.828 2.828a.5.5 0 10.707.708l3.182-3.182zM0 4.5h24v-1H0v1z"/></symbol></svg>